<svg xmlns="http://www.w3.org/2000/svg" width="32" height="32" viewBox="0 0 32 32">
  <title>Physics laboratory gear</title>
  <g fill="#173e37">
    <rect x="14" y="1" width="4" height="8" rx="1"/>
    <rect x="14" y="1" width="4" height="8" rx="1" transform="rotate(45 16 16)"/>
    <rect x="14" y="1" width="4" height="8" rx="1" transform="rotate(90 16 16)"/>
    <rect x="14" y="1" width="4" height="8" rx="1" transform="rotate(135 16 16)"/>
    <rect x="14" y="1" width="4" height="8" rx="1" transform="rotate(180 16 16)"/>
    <rect x="14" y="1" width="4" height="8" rx="1" transform="rotate(225 16 16)"/>
    <rect x="14" y="1" width="4" height="8" rx="1" transform="rotate(270 16 16)"/>
    <rect x="14" y="1" width="4" height="8" rx="1" transform="rotate(315 16 16)"/>
    <path fill-rule="evenodd" d="M26 16a10 10 0 1 1-20 0 10 10 0 1 1 20 0ZM20 16a4 4 0 1 1-8 0 4 4 0 1 1 8 0Z"/>
  </g>
</svg>
